<svg id="Componente_18_8" data-name="Componente 18 – 8" xmlns="http://www.w3.org/2000/svg" xmlns:xlink="http://www.w3.org/1999/xlink" width="56" height="56" viewBox="0 0 56 56">
  <defs>
    <linearGradient id="linear-gradient" y1="0.929" x2="1.161" gradientUnits="objectBoundingBox">
      <stop offset="0" stop-color="#f31a3b"/>
      <stop offset="1" stop-color="#df0a71"/>
    </linearGradient>
  </defs>
  <circle id="Elipse_56" data-name="Elipse 56" cx="28" cy="28" r="28" opacity="0" fill="url(#linear-gradient)"/>
  <path id="people" d="M35.383,90.66A4.651,4.651,0,0,1,31.991,89.1,6.051,6.051,0,0,1,30.416,85.4a5.057,5.057,0,0,1,1.28-3.862,5.165,5.165,0,0,1,7.363.007A5.047,5.047,0,0,1,40.347,85.4a6.068,6.068,0,0,1-1.575,3.695A4.639,4.639,0,0,1,35.383,90.66ZM39.381,85.33Zm3.987,15.99H27.4a1.678,1.678,0,0,1-1.333-.646,1.83,1.83,0,0,1-.319-1.562A7.983,7.983,0,0,1,29.4,94.2a12.04,12.04,0,0,1,11.961-.025,7.938,7.938,0,0,1,3.657,4.939,1.833,1.833,0,0,1-.322,1.561A1.677,1.677,0,0,1,43.368,101.32ZM23.935,90.9a4.554,4.554,0,0,1-4.179-4.417,4.27,4.27,0,0,1,1.09-3.248,4.308,4.308,0,0,1,6.174.007,4.237,4.237,0,0,1,1.09,3.242A4.552,4.552,0,0,1,23.935,90.9Zm3.977,1.9a9.192,9.192,0,0,0-3.976-.781,9.369,9.369,0,0,0-4.88,1.31,6.571,6.571,0,0,0-3,4.041,1.659,1.659,0,0,0,.29,1.415,1.534,1.534,0,0,0,1.217.591h6.723a.485.485,0,0,0,.477-.4c.007-.038.015-.076.025-.114a8.773,8.773,0,0,1,3.5-5.077.485.485,0,0,0-.038-.811C28.146,92.927,28.037,92.868,27.912,92.807Z" transform="translate(-2.538 -62.82)" fill="#fff"/>
</svg>
