<svg id="Componente_6_7" data-name="Componente 6 – 7" xmlns="http://www.w3.org/2000/svg" width="56" height="56" viewBox="0 0 56 56">
  <circle id="Elipse_1" data-name="Elipse 1" cx="28" cy="28" r="28" fill="#fff" opacity="0"/>
  <g id="home" transform="translate(-1.471 -17.572)">
    <path id="Trazado_5396" data-name="Trazado 5396" d="M74.994,99.185a.449.449,0,0,0-.621,0L64.04,109.057a.449.449,0,0,0-.139.325l0,9.264a1.8,1.8,0,0,0,1.8,1.8H71.09a.9.9,0,0,0,.9-.9v-7.633a.449.449,0,0,1,.449-.449h4.49a.449.449,0,0,1,.449.449v7.633a.9.9,0,0,0,.9.9h5.392a1.8,1.8,0,0,0,1.8-1.8v-9.264a.449.449,0,0,0-.139-.325Z" transform="translate(-45.212 -63.297)" fill="#fff"/>
    <path id="Trazado_5397" data-name="Trazado 5397" d="M42.655,43.907l-4.2-4.016V33.8a.9.9,0,0,0-.9-.9H34.865a.9.9,0,0,0-.9.9v1.8l-3.251-3.108a1.841,1.841,0,0,0-2.488,0L16.289,43.906a.915.915,0,0,0-.075,1.256.9.9,0,0,0,1.3.059L29.161,34.092a.449.449,0,0,1,.621,0L41.43,45.221A.9.9,0,0,0,42.7,45.2.92.92,0,0,0,42.655,43.907Z" transform="translate(0 0)" fill="#fff"/>
  </g>
</svg>
