<svg xmlns="http://www.w3.org/2000/svg" width="18.384" height="23.398" viewBox="0 0 18.384 23.398">
  <path id="download" d="M95.459,38.685H90.028V46.7l2.752-2.751a.836.836,0,0,1,1.181,1.181L89.783,49.3a.836.836,0,0,1-1.181,0l-4.178-4.178A.836.836,0,0,1,85.6,43.944L88.356,46.7v-8.01H82.925A2.928,2.928,0,0,0,80,41.61V52.473A2.928,2.928,0,0,0,82.925,55.4H95.459a2.928,2.928,0,0,0,2.925-2.925V41.61A2.928,2.928,0,0,0,95.459,38.685Zm-5.432-5.849a.836.836,0,0,0-1.671,0v5.849h1.671Z" transform="translate(-80 -32)" fill="#fff"/>
</svg>
