<svg xmlns="http://www.w3.org/2000/svg" width="57" height="57" viewBox="0 0 57 57">
  <g id="Grupo_1770" data-name="Grupo 1770" transform="translate(-155 -171)">
    <rect id="Rectángulo_375" data-name="Rectángulo 375" width="57" height="57" rx="3" transform="translate(155 171)" fill="#0acdff"/>
    <g id="walk" transform="translate(174.049 181.6)">
      <path id="Trazado_5401" data-name="Trazado 5401" d="M209.888,169.178,205.6,160.52l-3.389-4.329a5.5,5.5,0,0,1-.764-2.8V143.64h1.181a3.038,3.038,0,0,1,3.038,3.038v13.838" transform="translate(-194.61 -134.593)" fill="#fff"/>
      <path id="Trazado_5401_-_Contorno" data-name="Trazado 5401 - Contorno" d="M195.1,155.608a1.215,1.215,0,0,1-1.09-.676l-4.23-8.546-3.312-4.231a1.214,1.214,0,0,1-.089-.131,6.716,6.716,0,0,1-.933-3.422v-9.747a1.215,1.215,0,0,1,1.215-1.215h1.181a4.258,4.258,0,0,1,4.253,4.253v13.691l4.093,8.27a1.216,1.216,0,0,1-1.088,1.754Zm-6.666-14.885,1.231,1.572v-10.4a1.825,1.825,0,0,0-1.789-1.822V138.6A4.285,4.285,0,0,0,188.438,140.723Z" transform="translate(-179.825 -119.808)" fill="#fff"/>
      <path id="Trazado_5402" data-name="Trazado 5402" d="M112.6,141.321a1.215,1.215,0,0,1-1.215-1.215V134.48a1.215,1.215,0,0,1,.128-.543c.525-1.052,3.318-6.3,6.712-6.3a1.215,1.215,0,0,1,0,2.43c-1.345,0-3.364,2.719-4.41,4.7v5.331A1.215,1.215,0,0,1,112.6,141.321Z" transform="translate(-111.38 -119.808)" fill="#fff"/>
      <path id="Trazado_5403" data-name="Trazado 5403" d="M169.808,209.606a1.4,1.4,0,0,1-.779-.236l-4.567-2.937a1.608,1.608,0,0,1-.737-1.351v-1.8a.429.429,0,0,1,.66-.362l6.2,4.109a1.407,1.407,0,0,1-.781,2.577Zm-14.9,15.318a1.4,1.4,0,0,1-1.126-.563,1.463,1.463,0,0,1,.281-1.969l4.553-5.67a.563.563,0,0,1,.817.156c.118.193.257.429.394.69a1.484,1.484,0,0,1-.128,1.952c-.608.759-3.949,5.122-3.949,5.122A1.121,1.121,0,0,1,154.909,224.924Z" transform="translate(-150.312 -189.309)" fill="#fff"/>
      <circle id="Elipse_19" data-name="Elipse 19" cx="2.813" cy="2.813" r="2.813" transform="translate(8.246 0.608)" fill="#fff"/>
      <path id="Elipse_19_-_Contorno" data-name="Elipse 19 - Contorno" d="M-4.579-8A3.424,3.424,0,0,1-1.159-4.579,3.424,3.424,0,0,1-4.579-1.159,3.424,3.424,0,0,1-8-4.579,3.424,3.424,0,0,1-4.579-8Zm0,5.626A2.208,2.208,0,0,0-2.374-4.579,2.208,2.208,0,0,0-4.579-6.785,2.208,2.208,0,0,0-6.785-4.579,2.208,2.208,0,0,0-4.579-2.374Z" transform="translate(15.639 8)" fill="#fff"/>
    </g>
  </g>
</svg>
