<svg xmlns="http://www.w3.org/2000/svg" width="57" height="57" viewBox="0 0 57 57">
  <g id="Grupo_1769" data-name="Grupo 1769" transform="translate(-155 -171)">
    <rect id="Rectángulo_375" data-name="Rectángulo 375" width="57" height="57" rx="3" transform="translate(155 171)" fill="#ffb300"/>
    <g id="Icon_ionic-ios-bus" data-name="Icon ionic-ios-bus" transform="translate(165.5 181.504)">
      <path id="Trazado_5391" data-name="Trazado 5391" d="M7.706,29.3a.235.235,0,0,0-.394.155c.07,1.512.1,2.039.387,2.039h3.874c.309,0,.232-.809.232-1.547C9.394,29.953,8.508,30.108,7.706,29.3Z" fill="#fff"/>
      <path id="Trazado_5392" data-name="Trazado 5392" d="M28.294,29.3a.235.235,0,0,1,.394.155c-.07,1.512-.1,2.039-.387,2.039H24.427c-.309,0-.232-.809-.232-1.547C26.606,29.953,27.492,30.108,28.294,29.3Z" fill="#fff"/>
      <path id="Trazado_5393" data-name="Trazado 5393" d="M27,4.5H9A2.257,2.257,0,0,0,6.75,6.75h0V26.156a2.821,2.821,0,0,0,2.813,2.813H26.438a2.821,2.821,0,0,0,2.813-2.812V6.75h0A2.257,2.257,0,0,0,27,4.5ZM11.391,26.43a1.69,1.69,0,1,1,1.547-1.547A1.691,1.691,0,0,1,11.391,26.43Zm5.344-5.477H9.858a1.143,1.143,0,0,1-1.139-1.139V11.686a1.143,1.143,0,0,1,1.139-1.139h6.877a.282.282,0,0,1,.281.281v9.844A.282.282,0,0,1,16.734,20.953Zm8.149,5.477a1.69,1.69,0,1,1,1.547-1.547A1.691,1.691,0,0,1,24.884,26.43Zm2.4-6.6a1.128,1.128,0,0,1-1.125,1.125H19.266a.282.282,0,0,1-.281-.281V10.828a.282.282,0,0,1,.281-.281h6.891a1.128,1.128,0,0,1,1.125,1.125ZM26.227,8.438H9.773a.987.987,0,1,1,0-1.969H26.227a.987.987,0,1,1,0,1.969Z" fill="#fff"/>
    </g>
  </g>
</svg>
