<svg xmlns="http://www.w3.org/2000/svg" width="42" height="42" viewBox="0 0 42 42">
  <g id="Grupo_1607" data-name="Grupo 1607" transform="translate(0.001 -0.174)">
    <rect id="Rectángulo_375" data-name="Rectángulo 375" width="42" height="42" rx="3" transform="translate(-0.001 0.174)" fill="#0a53ff"/>
    <g id="walk" transform="translate(14.115 8.954)">
      <path id="Trazado_5401" data-name="Trazado 5401" d="M207.084,160.693l-2.861-5.781-2.263-2.891a3.67,3.67,0,0,1-.51-1.871V143.64h.789a2.028,2.028,0,0,1,2.028,2.029v9.24" transform="translate(-196.882 -137.599)" fill="#fff"/>
      <path id="Trazado_5401_-_Contorno" data-name="Trazado 5401 - Contorno" d="M191.9,146.316a.811.811,0,0,1-.728-.452l-2.824-5.707-2.211-2.825a.808.808,0,0,1-.06-.087,4.484,4.484,0,0,1-.623-2.285v-6.508a.811.811,0,0,1,.811-.811h.789a2.843,2.843,0,0,1,2.84,2.84v9.142l2.733,5.522a.812.812,0,0,1-.727,1.172Zm-4.451-9.939.822,1.05V130.48a1.219,1.219,0,0,0-1.194-1.217v5.7A2.861,2.861,0,0,0,187.445,136.376Z" transform="translate(-181.694 -122.411)" fill="#fff"/>
      <path id="Trazado_5402" data-name="Trazado 5402" d="M112.191,136.775a.811.811,0,0,1-.811-.811v-3.756a.812.812,0,0,1,.086-.363c.351-.7,2.215-4.205,4.482-4.205a.811.811,0,0,1,0,1.623c-.9,0-2.246,1.816-2.945,3.141v3.56A.811.811,0,0,1,112.191,136.775Z" transform="translate(-111.38 -122.411)" fill="#fff"/>
      <path id="Trazado_5403" data-name="Trazado 5403" d="M164.394,207.362a.938.938,0,0,1-.52-.158l-3.049-1.961a1.074,1.074,0,0,1-.492-.9v-1.2a.287.287,0,0,1,.441-.242l4.141,2.744a.939.939,0,0,1-.522,1.721Zm-9.949,10.228a.938.938,0,0,1-.752-.376.977.977,0,0,1,.188-1.314l3.04-3.786a.376.376,0,0,1,.546.1c.079.129.171.287.263.461a.991.991,0,0,1-.085,1.3c-.406.507-2.637,3.42-2.637,3.42A.748.748,0,0,1,154.445,217.59Z" transform="translate(-151.375 -193.809)" fill="#fff"/>
      <circle id="Elipse_19" data-name="Elipse 19" cx="1.878" cy="1.878" r="1.878" transform="translate(5.506 0.406)" fill="#fff"/>
      <path id="Elipse_19_-_Contorno" data-name="Elipse 19 - Contorno" d="M-5.716-8A2.287,2.287,0,0,1-3.432-5.716,2.287,2.287,0,0,1-5.716-3.432,2.287,2.287,0,0,1-8-5.716,2.287,2.287,0,0,1-5.716-8Zm0,3.757A1.474,1.474,0,0,0-4.243-5.716,1.474,1.474,0,0,0-5.716-7.189,1.474,1.474,0,0,0-7.189-5.716,1.474,1.474,0,0,0-5.716-4.243Z" transform="translate(13.101 8)" fill="#fff"/>
    </g>
  </g>
</svg>
