<svg id="Grupo_1666" data-name="Grupo 1666" xmlns="http://www.w3.org/2000/svg" xmlns:xlink="http://www.w3.org/1999/xlink" width="432.758" height="183.295" viewBox="0 0 432.758 183.295">
  <defs>
    <clipPath id="clip-path">
      <rect id="Rectángulo_406" data-name="Rectángulo 406" width="432.758" height="183.295" fill="none"/>
    </clipPath>
  </defs>
  <g id="Grupo_1665" data-name="Grupo 1665" clip-path="url(#clip-path)">
    <path id="Trazado_5408" data-name="Trazado 5408" d="M148.832,124.645c1.058-.948,1.781-2.652,3.413-2.619a4.509,4.509,0,0,1,2.738,3.653c.177.124.527.369.7.493.034,8.282-1.331,16.483-1.838,24.732,4.476-.158,8.862-1.163,13.3-1.661,4.155-.622,8.507-1.364,12.605-.062.378.488.756.972,1.144,1.46-.187.321-.555.972-.742,1.293,1.044-1.063,1.159-2.743,2.341-3.691a30.17,30.17,0,0,1,11.724-5.951,5.524,5.524,0,0,1,5.1.565,17.768,17.768,0,0,0,1.206,2.533,3.5,3.5,0,0,1,2.71,1.341,57.164,57.164,0,0,1,4.673,8.359,13.023,13.023,0,0,1,1.925-.747c3.351-.168,6.693-.5,10.039-.776-.306-.957-1.379-1.173-2.164-1.57a21.3,21.3,0,0,1-7.09-4.108,7.047,7.047,0,0,1-1.513-8.139c2-1.757,4.931-1.336,7.382-1.752,4.313.033,9.359.814,12.012,4.634-.263.685-.541,1.364-.79,2.054-.517.22-1.039.8-1.647.484-3.112-.967-6.468-1.508-9.637-.474,3.749,1.992,8.043,3.37,10.872,6.7,1.417,1.743,2.26,4.519.718,6.444a17.568,17.568,0,0,1-7.258,2.647c-2.853.019-5.664-.6-8.512-.646a17.533,17.533,0,0,1-3.471-1.106,6.175,6.175,0,0,1-.608-3.318,6.624,6.624,0,0,1-3.131,2.686c-1.2-.6-2.6-.962-3.48-2.063-.728-.991-1.35-2.059-2.049-3.069-2.078,1.431-4.065,2.987-6.09,4.486-.019.2-.057.6-.077.795a26.268,26.268,0,0,1-5.434,2.1,6.117,6.117,0,0,1-6.827-2.063,8.046,8.046,0,0,1-1.259-5.123c-2.624,1.752-5.893,1.91-8.909,2.451-6.9,1.13-13.544,3.5-20.5,4.347A7.746,7.746,0,0,1,146,158.334a6.048,6.048,0,0,1-.551-3.3c.574-4.8,1.278-9.594,1.6-14.42.852-5.3.9-10.671,1.776-15.966m41.555,24.866a6.828,6.828,0,0,0-3.844,3.84,13.192,13.192,0,0,0,9.972-5.008c-2.126-.795-4.16.517-6.128,1.168" transform="translate(-75.794 -63.607)"/>
    <path id="Trazado_5409" data-name="Trazado 5409" d="M395.649,166.056c.345-2.954,2.734-5.295,5.352-6.449,1.949-.919,3.662,1.02,4.716,2.442,2,2.8.9,6.41,2.159,9.46.105,14.238-.206,28.471-.2,42.709a20.6,20.6,0,0,1-.589,3.571c-.8-.01-1.6-.019-2.389-.024a10.031,10.031,0,0,1-1.752,1.436c-2.087.646-4.136-.8-6.233-.345-3.322.455-6.65.819-9.967,1.293a16.97,16.97,0,0,1-5.223.287c-3.121,1.934-6.291,3.787-9.307,5.879,7.124.287,14.281.732,21.385-.081,3.744-.589,7.516-1.005,11.265-1.566,1.613-.278,3.227.3,4.845.034.177.22.536.661.713.881-.182.258-.551.78-.737,1.039.685.268,1.369.531,2.064.8a10.9,10.9,0,0,0-2.394,2.15c-.416.752-.029,1.589.1,2.37a78.653,78.653,0,0,1-13.366,6.87c-1.695.464-3.49.306-5.171.833-2.379.7-4.883.349-7.3.78-1.872.35-3.753-.263-5.621-.029-5.927,1.455-12.04-.029-17.761-1.695-2.059-.814-4.471-1.4-5.8-3.332-.814-1.092-1.594-2.212-2.346-3.351-.756-1.221-.531-2.7-.335-4.041a21.6,21.6,0,0,1,1.384-5.257c1.661-2.537,4.414-3.993,6.98-5.453,9.781-4.955,20.61-7.291,31.391-8.847a5.948,5.948,0,0,0,1.949-.79c.105-11.878.694-23.741,1.029-35.614.239-2.006.785-3.974,1.163-5.96" transform="translate(-183.254 -83.072)"/>
    <path id="Trazado_5410" data-name="Trazado 5410" d="M41.22,172.729c4.572-.924,8.938-3.265,13.706-2.767a5.944,5.944,0,0,0,2.2,3.332c-1.034,1.087-.914,2.762-.594,4.112a18.446,18.446,0,0,0,1.628,1.609c-.335.148-.665.3-1,.445.3.958-.44,1.484-1.092,2.011.57.239,1.144.493,1.709.752a20.253,20.253,0,0,1-3.035.8c-1.35.785-2.983.675-4.395,1.283-2.777,1.226-5.577,2.4-8.349,3.648-2.6,1.609-5.29,3.093-8.029,4.462-1.613.675-2.614,2.183-4.031,3.145-1.92,1.6-4.27,2.7-5.86,4.687-1.872,2.255-3.859,4.414-5.635,6.75-.589.9-1.838,1.106-2.312,2.083a18.459,18.459,0,0,0,.057,1.925c-.709.713-1.479,1.374-2.116,2.154-.273,3.117-2.063,6.1-1.278,9.278a9.094,9.094,0,0,0,3.222,2.638c1.867,1.465,4.337,1.57,6.482,2.413,3.059,1.125,6.372.78,9.561,1,7.2.455,14.4-.417,21.529-1.3,2.279-.4,4.653.053,6.8-.981,2.437,0,4.711-.977,7.09-1.364.689-.22,1.2.383,1.757.661,1.168.206,3.064-.642,3.241,1.111a73.769,73.769,0,0,0,.168-7.421c0-1.829.9-3.476,1.307-5.223.388-1.245.469-2.667,1.388-3.672a27.768,27.768,0,0,1,5.86-4.639,98.786,98.786,0,0,1,11.174-3.088c3.974.134,8.062-.536,11.935.589,4.337.723,8.052,3.26,11.72,5.53.474,2.413,3.591,2.662,4.673,4.658a65.5,65.5,0,0,1,2.983,6.042,21.819,21.819,0,0,1,.326,8.354c-.747,1.671-1.781,3.208-2.418,4.936a47.754,47.754,0,0,1-4.606,5.352c-2.9,1.915-5.769,3.892-8.761,5.64-5.63,1.91-11.485,3.8-17.508,3.313a61.057,61.057,0,0,1-8.33-2.078c-2.336-1.226-4.246-3.1-6.315-4.711a18.2,18.2,0,0,1-3.366-8.1,4.747,4.747,0,0,0-2.14,2.59c-.23,0-.685-.019-.91-.024-1.029.914-2.4,1.24-3.557,1.939-2.006,1.159-4.385,1.264-6.573,1.886.345.3,1.034.886,1.379,1.183-1.072,0-2.15-.057-3.222-.12.01-.254.019-.756.024-1.005-.254.244-.756.728-1.005.972-1.273-.613-1.36.957-2.365,1.274.555.048,1.666.148,2.221.2-2.628,1.135-5.74-.263-8.431.867.024.259.072.771.1,1.029.4-.019,1.206-.048,1.609-.062.3.259.594.517.886.785-1.077-.01-2.159-.024-3.236-.029.6-.847-.2-1.336-.79-1.585a16.25,16.25,0,0,0-3.729.934,18.392,18.392,0,0,1,3.969.819c-.1.321-.287.953-.383,1.273a3.737,3.737,0,0,0-1.848-.881q.517,1.178-.675,1.23a81.63,81.63,0,0,1-9.561-.2c-2.379.057-4.749.263-7.124.44-1.36-2.068-4.237.168-5.831-1.647-2.456.321-4.562-1.259-6.927-1.589a10.338,10.338,0,0,0,2.595-.637,8.884,8.884,0,0,0-2.26-.4c-.8-.34-1.613-.665-2.427-.991l-.862.46c-1.12-.68-2.719-1.039-2.624-2.681-.369.048-1.111.134-1.479.182-.239-.546-.479-1.092-.713-1.637l-2.2-1.063c-.9-2.1-3.236-3.456-3.409-5.869-.335-4.491-1.666-8.957-1.034-13.481.79-7.535,4.7-14.329,9.211-20.256a89.991,89.991,0,0,1,9.7-10.374c.934-.929,2.331-1.116,3.3-1.992A6.649,6.649,0,0,1,25.81,181.7c.838-1.159,1.618-2.47,3.045-2.968,2.336-.9,4.223-3.131,6.88-2.959,1.719-1.2,3.3-2.786,5.486-3.04m45.792,44.006c-.742,1.058-.326,2.322-.2,3.5a2.711,2.711,0,0,0-.373,2.126c-1.408.7-1.929,2.245-2.667,3.528-.488.953-1.278,2.025-.689,3.121,1.814,1.915,4.4,2.8,6.851,3.571,2.724.871,5.477-.268,8.2-.5,2.8-.843,5.453-2.14,8.2-3.16,2.944-1.058,5.874-2.628,7.7-5.252a3.573,3.573,0,0,0-.436-3.725c-1.384-2.016-3.251-4.39-5.956-4.27-1.077.1-1.819-.929-2.868-1.02-6.023-.756-11.863,1.211-17.757,2.078m-15.2,12.06c-.239.675-.024.9.651.675.235-.68.019-.9-.651-.675m-19.073,9.944-.3.258c-.019.259-.053.771-.072,1.029l.991-.038c.029-.259.086-.771.11-1.025-.182-.057-.546-.172-.728-.225" transform="translate(0 -88.558)"/>
    <path id="Trazado_5411" data-name="Trazado 5411" d="M538.829,241.682a20.7,20.7,0,0,1,4.764.388c2.188.354,4.472.373,6.521,1.331,3.883,1.364,7.99,3.39,9.8,7.325a7.612,7.612,0,0,0-1.293,3.136c-1,.531-2,1.8-3.217,1.106a39.468,39.468,0,0,0-9.857-1.92c-2.59-.33-5.127.507-7.7.656,1.092,1.542,2.983,2,4.61,2.734,4.826,2.241,9.733,4.591,13.615,8.316,2.648,2.413,4.716,5.86,4.443,9.556-.168,1.709-.546,3.768-2.236,4.63a42.088,42.088,0,0,1-10.892,4.189c-2.494.665-4.993-.1-7.483-.22-2.781.574-5.434-.943-8.225-.642-2.552.283-4.84-1.01-7.2-1.747-1.154-.273-1.355-1.618-2.073-2.389a34.068,34.068,0,0,1-.153-3.892c-.35.618-.689,1.245-1.025,1.872a4.823,4.823,0,0,0-2.509.57c.771.407,1.551.809,2.327,1.221a24.335,24.335,0,0,1-2.451,1.992c-1.743.661-3.638.823-5.391,1.455a4.506,4.506,0,0,0-1.336,1.8c-4.874.445-9.757,1.929-14.659,1.02a38.507,38.507,0,0,1-13.252-3.811c-2.284-1.135-3.729-3.346-5.127-5.381-1.838-2.633-2.461-5.831-3.413-8.838-.067-3.93,1.881-7.507,3.825-10.8a21.48,21.48,0,0,1,7.665-7.727c.972-.541,2.164-.479,3.117-1.063,2.738-1.7,5.941-2.375,9.043-3.088,2.671-.354,5.486-1.015,8.12-.105a20.327,20.327,0,0,1,3.763,1.609c-.024.249-.062.752-.081,1,.9.349,2.284.373,2.48,1.561.326,2.1,1.613,4.074,1.039,6.243-.187.943.043,1.972-.44,2.849-.579,1.015-.34,2.308-1.116,3.232-.934,1.269-1.455,2.906-2.805,3.82-2.81,2.083-5.726,4.031-8.5,6.171,6.056,1.4,12.342.756,18.5,1.173a20.868,20.868,0,0,0,1.886,2.126,11.533,11.533,0,0,1,4.95-1.154c3.231.163,6.372-.9,9.608-.709,2.581-.359,5.3-.235,7.751-1.216-1.216-1.4-3.064-1.8-4.673-2.547-4.548-1.881-9.072-4.093-12.687-7.492-3.6-3.653-5.6-9.541-3.193-14.348a4.6,4.6,0,0,1,2.983-2.389c3.9-1.384,8.1-1.259,12.17-1.6m-43.12,12.05a19.521,19.521,0,0,0-5.927,4.519c.9,1.977,1.7,4,2.571,6a26.25,26.25,0,0,0,7.081-4.931c1.68-1.585,3.648-3.136,4.184-5.51q-1.027-.632-2.016-1.307a35.6,35.6,0,0,0-5.893,1.23" transform="translate(-247.814 -125.957)"/>
    <path id="Trazado_5412" data-name="Trazado 5412" d="M286.525,248.5c2.059-1.077,3.983-2.576,6.334-2.954,2.092-.68,3.825,1.125,5.4,2.212,2.3,3.7,3.418,7.971,4.457,12.16a14.163,14.163,0,0,1,.081,4.361c-.129,5.434-.89,10.829-1.321,16.249-.1,2.255-1.192,4.28-1.781,6.43A8.114,8.114,0,0,1,297.636,288a4.467,4.467,0,0,0-2.762-.55c-.876-.8-1.862-1.484-2.7-2.322a18.5,18.5,0,0,1-1.762-5.056c-.12-2.853.273-5.7.359-8.546.134-3.883.8-7.8.2-11.667-2.815,1.144-5.9,2.212-7.827,4.7-5.4,5.888-11.38,11.423-15.262,18.5a6.208,6.208,0,0,1-4.227.172c-.536.637-1.3.46-2.015.349.153-.991-.479-1.551-1.273-1.953-.412.191-.828.388-1.24.589a16.764,16.764,0,0,1-1.23-5.96,172.835,172.835,0,0,1,3.026-18.9,43.927,43.927,0,0,1,2.063-6.276c1.249-.594,2.624-1.336,3.983-.565a6.184,6.184,0,0,0,2.016,2.676,20.4,20.4,0,0,1,2.293,6.679c2.978-1.891,6.08-3.715,8.474-6.348a22.554,22.554,0,0,1,6.779-5.032" transform="translate(-134.427 -127.914)"/>
    <path id="Trazado_5413" data-name="Trazado 5413" d="M23.2,363.833c.919-4.519,1.695-9.063,2.7-13.558,1.537,3.217,2.92,6.506,4.347,9.776q2.334-4.919,4.481-9.924c.981,4.534,1.656,9.13,2.509,13.687l-1.925.014c-.421-2.341-.766-4.7-1.182-7.038-.072-.024-.215-.062-.287-.081-1.307,2.513-2.264,5.194-3.591,7.7-1.278-2.738-2.442-5.529-3.792-8.23-.369,2.557-.871,5.094-1.3,7.641q-.984,0-1.968.014" transform="translate(-12.094 -182.506)"/>
    <path id="Trazado_5414" data-name="Trazado 5414" d="M295.931,364.062c2.188-4.471,4.146-9.048,6.358-13.505,2.073,4.476,4.031,9.005,6.075,13.5-.694-.014-1.384-.024-2.073-.038-.436-1.039-.886-2.068-1.36-3.088-1.8,0-3.61,0-5.41,0-.474,1.029-.938,2.059-1.393,3.1-.733.014-1.465.024-2.2.043m4.3-4.965q1.975-.007,3.95,0c-.646-1.369-1.23-2.772-1.881-4.136-.776,1.336-1.345,2.772-2.068,4.136" transform="translate(-154.256 -182.73)"/>
    <path id="Trazado_5415" data-name="Trazado 5415" d="M385.68,350.417c2.106,4.5,4.064,9.058,6.128,13.577-.732-.019-1.46-.034-2.188-.043-.4-1.039-.823-2.073-1.254-3.1-1.814,0-3.629-.01-5.439.014-.483,1.039-.991,2.068-1.494,3.1-.694,0-1.388,0-2.073.01,2.169-4.491,4.237-9.029,6.319-13.558m-.081,4.467c-.6,1.4-1.221,2.791-1.925,4.146,1.273-.01,2.552,0,3.835,0a30.046,30.046,0,0,0-1.91-4.141" transform="translate(-197.744 -182.657)"/>
    <path id="Trazado_5416" data-name="Trazado 5416" d="M76.086,352.053q3.5-.007,7.014,0c0,.6,0,1.2.01,1.8-1.7,0-3.4,0-5.108,0,0,1.01,0,2.016.01,3.026,1.642,0,3.279,0,4.921,0,0,.46-.014,1.388-.014,1.848q-2.456-.007-4.912,0c0,1.431,0,2.868.019,4.3,1.695,0,3.39,0,5.079-.01v1.791q-3.512.007-7.023,0,.007-6.391,0-12.773" transform="translate(-39.658 -183.508)"/>
    <path id="Trazado_5417" data-name="Trazado 5417" d="M113.88,352.047c.642,0,1.288,0,1.934.01-.153,3.624.292,7.3-.249,10.887-.646,2.312-3.543,2.667-5.424,1.671.263-.541.527-1.082.795-1.618.718.1,1.489.488,2.2.163.68-.46.651-1.35.723-2.068.053-3.016-.01-6.032.019-9.043" transform="translate(-57.412 -183.507)"/>
    <path id="Trazado_5418" data-name="Trazado 5418" d="M149.446,351.955c3.993-1.6,8.957,1.637,8.986,5.946.4,3.863-3.4,7.387-7.2,6.951a6.628,6.628,0,0,1-1.786-12.9m.862,1.618c-3.806,1.034-4.548,6.808-1.115,8.742,2.829,2.078,7.488-.354,7.21-3.911.45-3.174-3.15-5.912-6.094-4.831" transform="translate(-75.59 -183.242)"/>
    <path id="Trazado_5419" data-name="Trazado 5419" d="M195.731,352.051c2.231-.01,4.974-.369,6.611,1.518a3.86,3.86,0,0,1-2.092,5.917c1.345,1.786,2.614,3.629,3.911,5.453-.771,0-1.537.01-2.308.019-1.379-1.858-2.542-3.868-3.993-5.678-.11,1.886-.062,3.777-.062,5.664-.689,0-1.379,0-2.068,0,0-4.3.01-8.593,0-12.888m2.068,1.723c-.01,1.4-.01,2.805.014,4.208,1.585.1,3.284-.46,3.524-2.255-.445-1.628-2.078-1.924-3.538-1.953" transform="translate(-102.026 -183.491)"/>
    <path id="Trazado_5420" data-name="Trazado 5420" d="M264.067,352.034c1.8.081,3.792-.306,5.419.642a3.85,3.85,0,0,1,.6,5.955c-1.13.958-2.7,1.005-4.108,1.073.019,1.743.01,3.49.014,5.237-.642,0-1.278,0-1.91.01-.033-4.3-.01-8.613-.014-12.917m1.925,1.661q-.007,2.083,0,4.165a4.561,4.561,0,0,0,2.863-.627,2.6,2.6,0,0,0,.3-2.336c-.689-1.044-2.049-1.068-3.164-1.2" transform="translate(-137.644 -183.493)"/>
    <path id="Trazado_5421" data-name="Trazado 5421" d="M343.16,352.027c2.183,0,4.84-.311,6.449,1.518a3.781,3.781,0,0,1-2.092,5.946c1.388,1.762,2.633,3.634,3.954,5.448-.78,0-1.566,0-2.341.01-1.355-1.862-2.528-3.854-3.964-5.654-.124,1.881-.062,3.768-.077,5.649-.646-.01-1.283-.014-1.92-.019-.019-4.3,0-8.6-.01-12.9m1.934,1.752c0,1.393,0,2.791.01,4.194.943-.139,2.039.01,2.82-.661.685-.512.517-1.427.493-2.164-.536-1.3-2.169-1.206-3.322-1.369" transform="translate(-178.874 -183.487)"/>
    <path id="Trazado_5422" data-name="Trazado 5422" d="M452.359,352.047c2.614,0,5.228,0,7.842,0,0,.6,0,1.2,0,1.8-.977,0-1.948,0-2.92,0q0,5.486,0,10.963c-.646,0-1.293,0-1.939,0,.019-3.653,0-7.3.014-10.949-1.015-.01-2.03-.019-3.04-.038.009-.6.024-1.192.038-1.786" transform="translate(-235.775 -183.507)"/>
    <path id="Trazado_5423" data-name="Trazado 5423" d="M492.486,351.965a6.754,6.754,0,0,1,8.775,4.548,6.625,6.625,0,0,1-5.664,8.311,6.647,6.647,0,0,1-3.112-12.859m.819,1.609c-3.777,1.082-4.476,6.784-1.1,8.723,2.872,2.092,7.483-.321,7.363-3.892a4.872,4.872,0,0,0-6.267-4.831" transform="translate(-254.387 -183.248)"/>
    <path id="Trazado_5424" data-name="Trazado 5424" d="M585.651,352a6.818,6.818,0,0,1,8.78,4.112,6.71,6.71,0,0,1-4.165,8.426c-3.911,1.5-8.718-1.46-8.895-5.692a6.663,6.663,0,0,1,4.28-6.846m.431,1.8c-2.968,1.23-3.7,5.553-1.489,7.808a4.823,4.823,0,0,0,6.147.627,4.56,4.56,0,0,0,2-4.333c.1-3.193-3.849-5.6-6.655-4.1" transform="translate(-303.015 -183.252)"/>
    <path id="Trazado_5425" data-name="Trazado 5425" d="M631.51,355.447c-.4-2.48,2.461-4.447,4.734-3.768,1.144.206,1.891,1.173,2.662,1.953-.512.3-1.02.608-1.527.9-.838-1.173-2.743-1.767-3.677-.364-.081.345-.234,1.039-.311,1.384,1.676,1.235,3.983,1.522,5.271,3.279,1.551,2.451-.455,6.185-3.418,6.056a4.115,4.115,0,0,1-4.313-3.859c.642-.11,1.293-.191,1.948-.254.158.507.287,1.029.4,1.556,1.1,1.034,3.327.981,3.811-.646a2.294,2.294,0,0,0-1.8-2.978c-1.6-.555-3.38-1.451-3.772-3.265" transform="translate(-328.877 -183.244)"/>
    <path id="Trazado_5426" data-name="Trazado 5426" d="M539.051,352.058c2.437.034,5.161-.282,7.3,1.139a6.731,6.731,0,0,1,2.035,8.23,6.825,6.825,0,0,1-3.677,3.141,21.351,21.351,0,0,1-5.635.4c-.038-4.3,0-8.6-.019-12.907m1.929,1.767c.01,3.078-.024,6.157.024,9.235a7.865,7.865,0,0,0,3.648-.517,4.658,4.658,0,0,0,1.1-7.272c-1.183-1.374-3.112-1.408-4.773-1.446" transform="translate(-280.984 -183.508)"/>
    <path id="Trazado_5427" data-name="Trazado 5427" d="M663.674,10.267A22.705,22.705,0,0,1,681.024.07c9.5-.79,19.217,5.127,22.568,14.1a22.858,22.858,0,0,1-5.6,25.225,3.081,3.081,0,0,1-1.264.742c-.417.144-.824.3-1.23.45l.35.589a26.447,26.447,0,0,1-8.411,3.653,23.05,23.05,0,0,1-13.707-1.3,22.51,22.51,0,0,1-13.338-16.79,22.324,22.324,0,0,1,3.284-16.478" transform="translate(-344.016 0)" fill="#e80810"/>
    <path id="Trazado_5428" data-name="Trazado 5428" d="M822.9,49.554a18.425,18.425,0,0,1,14.463,1.312,18.8,18.8,0,0,1,8.469,24.32,19.408,19.408,0,0,1-11.648,10.437,18.866,18.866,0,0,1-24.435-16.34A18.842,18.842,0,0,1,822.9,49.554" transform="translate(-422.025 -25.345)" fill="#f86110"/>
    <path id="Trazado_5429" data-name="Trazado 5429" d="M700.05,84.3c.407-.153.814-.306,1.23-.45-.163.369-.325.742-.479,1.111,1.867,4.558,3.337,9.278,4.893,13.955,5.994-1.944,11.772-4.5,17.738-6.53,4.309-1.513,8.5-3.375,12.859-4.74a19.126,19.126,0,0,0,3.2,8.962c-7.909,3.117-15.913,6.032-23.856,9.043,9.948,7.349,19.609,15.08,29.481,22.53,1.025.886,2.442,1.5,2.916,2.868,3.667,8.866,7.176,17.8,10.891,26.642.058.373.168,1.115.22,1.484a22.117,22.117,0,0,0-9.379,4.673,2.84,2.84,0,0,1,.627-1.4c-3.327-8.359-6.812-16.651-10.13-25.01a3.315,3.315,0,0,0-.929-1.5c-11.341-8.713-22.736-17.369-34-26.187-.488,5.07-.081,10.178-.215,15.267.4,8.766,0,17.551.268,26.326-.01,12.744.2,25.484.177,38.228a20.891,20.891,0,0,0-9.632.6c0-12.94-.2-25.881-.191-38.826-.2-3.2-.182-6.4-.167-9.6.034-9.551-.11-19.1-.12-28.653-7.612,2.839-15.167,5.831-22.822,8.541-1.1-2.992-1.771-6.214-3.921-8.694q13.846-5.429,27.853-10.446c-1.154-4.764-3.193-9.264-4.577-13.96a26.446,26.446,0,0,0,8.411-3.653Z" transform="translate(-348.57 -43.706)" fill="#109228"/>
    <path id="Trazado_5430" data-name="Trazado 5430" d="M606.492,131.88c7.928-5.281,19.609-3.078,25.187,4.6,2.149,2.48,2.825,5.7,3.921,8.694-.579,1.527.01,3.222-.239,4.811a19.236,19.236,0,0,1-6.611,12.318,18.54,18.54,0,0,1-11.839,4.352,18.218,18.218,0,0,1-14.779-6.688,18.932,18.932,0,0,1,4.361-28.083" transform="translate(-311.538 -67.237)" fill="#594584"/>
    <path id="Trazado_5431" data-name="Trazado 5431" d="M840.417,238.087a8.835,8.835,0,0,1,.67,1.522,18.94,18.94,0,0,1,19.94,26.757,19.318,19.318,0,0,1-12.165,10.178,19.736,19.736,0,0,1-13.256-1.3,18.965,18.965,0,0,1-4.347-31,22.116,22.116,0,0,1,9.379-4.673c-.053-.369-.163-1.111-.22-1.484" transform="translate(-430.061 -124.104)" fill="#01559d"/>
    <path id="Trazado_5432" data-name="Trazado 5432" d="M711.576,304.968a20.892,20.892,0,0,1,9.632-.6,18.845,18.845,0,0,1,13.706,11.016,19.109,19.109,0,0,1,1.393,10.628,18.906,18.906,0,1,1-24.732-21.041" transform="translate(-364.213 -158.498)" fill="#ff9e02"/>
  </g>
</svg>
