<svg id="Grupo_1675" data-name="Grupo 1675" xmlns="http://www.w3.org/2000/svg" xmlns:xlink="http://www.w3.org/1999/xlink" width="49.209" height="15.173" viewBox="0 0 49.209 15.173">
  <defs>
    <clipPath id="clip-path">
      <rect id="Rectángulo_409" data-name="Rectángulo 409" width="49.209" height="15.173" fill="#4b4b4b"/>
    </clipPath>
  </defs>
  <g id="Grupo_1674" data-name="Grupo 1674" clip-path="url(#clip-path)">
    <path id="Trazado_5439" data-name="Trazado 5439" d="M661.427,0H663.3c0,1.132-.007,2.464-.007,3.62h3.966c0,.652.007,1.04.007,1.693h-3.939c-.007.163-.017.285-.017.406q0,2.906,0,5.812a1.443,1.443,0,0,0,1.331,1.646,3.888,3.888,0,0,0,2.551-.308l.914,1.615a4.508,4.508,0,0,1-1.868.637,4.778,4.778,0,0,1-3.6-.8,2.93,2.93,0,0,1-1.22-2.411q-.014-5.846,0-11.691c0-.066.011-.132.019-.218m-4.041,15.135h1.876V3.62h-1.876ZM659.269,0h-1.883V1.893h1.883ZM653.754,3.62l-2.885,8.612-.047-.136h-.006l-.229-.691L647.935,3.62H645.95l-2.885,8.612-.095-.278c-.008-.018-.015-.036-.02-.053l-.062-.187L640.13,3.62h-1.919c.017.058.033.11.05.161q.933,2.818,1.867,5.636c.53,1.6,1.055,3.2,1.594,4.791a1.332,1.332,0,0,0,1.414.953,1.446,1.446,0,0,0,1.321-1.152c.625-1.878,1.24-3.759,1.86-5.638.2-.6.4-1.2.622-1.851.056.128.094.2.119.272q.515,1.555,1.028,3.11c.479,1.447.952,2.9,1.444,4.337a1.284,1.284,0,0,0,1.128.915,1.314,1.314,0,0,0,1.364-.653,3.287,3.287,0,0,0,.292-.687q1.357-4.1,2.7-8.2c.215-.653.428-1.309.653-2Z" transform="translate(-618.896)" fill="#4b4b4b"/>
    <path id="Trazado_5440" data-name="Trazado 5440" d="M8.53.67V5.492a.923.923,0,0,1-.92.92H7.582a.923.923,0,0,1-.92-.92V.67A7.6,7.6,0,1,0,8.53.67" transform="translate(0 -0.65)" fill="#4b4b4b"/>
  </g>
</svg>
