<svg id="Grupo_1522" data-name="Grupo 1522" xmlns="http://www.w3.org/2000/svg" xmlns:xlink="http://www.w3.org/1999/xlink" width="43.001" height="53.754" viewBox="0 0 43.001 53.754">
  <defs>
    <clipPath id="clip-path">
      <rect id="Rectángulo_373" data-name="Rectángulo 373" width="43.001" height="53.754" fill="#fff"/>
    </clipPath>
  </defs>
  <g id="Grupo_1521" data-name="Grupo 1521" clip-path="url(#clip-path)">
    <path id="Trazado_5385" data-name="Trazado 5385" d="M63.393,3.011a6.649,6.649,0,1,1,10.064,8.543.9.9,0,0,1-.371.218c-.122.042-.241.087-.361.132l.1.173a7.756,7.756,0,0,1-2.467,1.071,6.76,6.76,0,0,1-4.02-.38A6.6,6.6,0,0,1,62.43,7.843a6.547,6.547,0,0,1,.963-4.833" transform="translate(-53.561 0)" fill="#fff"/>
    <path id="Trazado_5386" data-name="Trazado 5386" d="M215.854,48.9a5.4,5.4,0,0,1,4.242.385,5.515,5.515,0,0,1,2.484,7.132,5.692,5.692,0,0,1-3.416,3.061A5.533,5.533,0,0,1,212,54.682a5.526,5.526,0,0,1,3.857-5.786" transform="translate(-182.204 -41.796)" fill="#fff"/>
    <path id="Trazado_5387" data-name="Trazado 5387" d="M80.235,83.979c.119-.045.239-.09.361-.132-.048.108-.1.218-.14.326.548,1.337.979,2.721,1.435,4.093,1.758-.57,3.452-1.32,5.2-1.915,1.264-.444,2.492-.99,3.771-1.39a5.609,5.609,0,0,0,.939,2.628c-2.319.914-4.667,1.769-7,2.652,2.918,2.155,5.751,4.423,8.646,6.607.3.26.716.439.855.841,1.075,2.6,2.1,5.22,3.194,7.813.017.11.049.327.065.435a6.486,6.486,0,0,0-2.75,1.37A.832.832,0,0,1,95,106.9c-.976-2.451-2-4.883-2.971-7.334a.973.973,0,0,0-.272-.439c-3.326-2.555-6.668-5.094-9.971-7.68-.143,1.487-.024,2.985-.063,4.477.117,2.571,0,5.147.079,7.721,0,3.737.059,7.473.052,11.211a6.127,6.127,0,0,0-2.825.177c0-3.8-.059-7.59-.056-11.386-.059-.938-.053-1.877-.049-2.815.01-2.8-.032-5.6-.035-8.4-2.232.833-4.448,1.71-6.693,2.5a7.66,7.66,0,0,0-1.15-2.55q4.06-1.592,8.168-3.064c-.338-1.4-.936-2.717-1.342-4.094a7.756,7.756,0,0,0,2.467-1.071Z" transform="translate(-61.069 -72.075)" fill="#fff"/>
    <path id="Trazado_5388" data-name="Trazado 5388" d="M2.588,129.838a5.591,5.591,0,0,1,7.386,1.348,7.66,7.66,0,0,1,1.15,2.55c-.17.448,0,.945-.07,1.411a5.641,5.641,0,0,1-1.939,3.612,5.437,5.437,0,0,1-3.472,1.276,5.343,5.343,0,0,1-4.334-1.961,5.552,5.552,0,0,1,1.279-8.236" transform="translate(0 -110.88)" fill="#fff"/>
    <path id="Trazado_5389" data-name="Trazado 5389" d="M231.888,238.087a2.6,2.6,0,0,1,.2.446,5.534,5.534,0,0,1,6.347,4.988,5.519,5.519,0,0,1-4.067,5.843,5.788,5.788,0,0,1-3.888-.382,5.562,5.562,0,0,1-1.275-9.091,6.486,6.486,0,0,1,2.75-1.37c-.015-.108-.048-.326-.065-.435" transform="translate(-195.457 -204.66)" fill="#fff"/>
    <path id="Trazado_5390" data-name="Trazado 5390" d="M104.825,304.333a6.127,6.127,0,0,1,2.825-.177,5.526,5.526,0,0,1,4.02,3.231,5.6,5.6,0,0,1,.409,3.117,5.545,5.545,0,1,1-7.253-6.171" transform="translate(-86.867 -261.378)" fill="#fff"/>
  </g>
</svg>
