<svg id="Grupo_1752" data-name="Grupo 1752" xmlns="http://www.w3.org/2000/svg" xmlns:xlink="http://www.w3.org/1999/xlink" width="18.041" height="30.05" viewBox="0 0 18.041 30.05">
  <defs>
    <clipPath id="clip-path">
      <rect id="Rectángulo_435" data-name="Rectángulo 435" width="18.041" height="30.05" fill="#0f0f0f"/>
    </clipPath>
  </defs>
  <g id="Grupo_1746" data-name="Grupo 1746" clip-path="url(#clip-path)">
    <path id="Trazado_5461" data-name="Trazado 5461" d="M87.407,303.831a.768.768,0,0,1-.314-.7c.011-1.788.005-3.575.006-5.363,0-.553.14-.692.691-.692q1.524,0,3.048,0c.472,0,.632.159.633.633,0,1.827,0,3.653.006,5.48a.728.728,0,0,1-.313.643Z" transform="translate(-80.265 -273.781)" fill="#0f0f0f"/>
    <path id="Trazado_5462" data-name="Trazado 5462" d="M18.039,16.385H.017v-.33q0-6.938,0-13.877A2.018,2.018,0,0,1,2.194,0h13.7a2.01,2.01,0,0,1,2.159,2.136q.006,6.982,0,13.965c0,.086-.009.172-.016.284m-9-11.252c-1.447,0-2.893,0-4.34,0A1.494,1.494,0,0,0,3.095,6.748q-.006,2.023,0,4.047a1.945,1.945,0,0,0,.053.492,1.48,1.48,0,0,0,1.507,1.1c.148,0,.264-.005.352.173a1.4,1.4,0,0,0,1.345.821,1.45,1.45,0,0,0,1.347-.83.356.356,0,0,1,.26-.156q1.07-.019,2.14,0a.388.388,0,0,1,.279.171,1.462,1.462,0,0,0,1.358.815,1.4,1.4,0,0,0,1.324-.809.3.3,0,0,1,.314-.188,1.487,1.487,0,0,0,1.6-1.639q0-1.965,0-3.929a1.517,1.517,0,0,0-1.684-1.686q-2.126,0-4.252,0" transform="translate(-0.015 -0.001)" fill="#0f0f0f"/>
    <path id="Trazado_5463" data-name="Trazado 5463" d="M.019,222.223h18c.006.1.016.188.016.274,0,.821.005,1.643,0,2.464A2.017,2.017,0,0,1,15.9,227.09q-6.878,0-13.756,0A2.018,2.018,0,0,1,0,224.959c-.005-.821,0-1.642,0-2.464,0-.086.01-.171.016-.272" transform="translate(0 -204.799)" fill="#0f0f0f"/>
    <path id="Trazado_5464" data-name="Trazado 5464" d="M56.97,78.27q2.126,0,4.252,0c.55,0,.688.143.69.7,0,.068,0,.137,0,.205-.006.449-.167.612-.626.614-.938,0-1.877,0-2.815,0a1.764,1.764,0,0,0-.35.023.488.488,0,0,0-.028.949,1.3,1.3,0,0,0,.348.031c.938,0,1.877,0,2.815,0,.5,0,.653.158.655.645,0,.508,0,1.017,0,1.525s-.392.6-.768.548c-.054-.008-.1-.1-.139-.166a1.442,1.442,0,0,0-1.357-.815,1.406,1.406,0,0,0-1.321.818.272.272,0,0,1-.289.176c-.7-.007-1.408-.009-2.111,0a.317.317,0,0,1-.329-.208,1.4,1.4,0,0,0-1.311-.787,1.358,1.358,0,0,0-1.313.775c-.126.26-.307.227-.5.208a.458.458,0,0,1-.426-.382,1.033,1.033,0,0,1-.013-.234q0-1.994,0-3.988c0-.487.157-.641.657-.642q2.141,0,4.282,0m-1.881,2.5c.331,0,.663.007.994,0a.5.5,0,1,0,.007-.992q-.993-.018-1.987,0a.5.5,0,1,0,.023.994c.321.007.643,0,.964,0" transform="translate(-47.95 -72.133)" fill="#0f0f0f"/>
  </g>
</svg>
