<svg xmlns="http://www.w3.org/2000/svg" width="22.75" height="22.75" viewBox="0 0 22.75 22.75">
  <path id="Icon_ionic-ios-arrow-dropleft-circle" data-name="Icon ionic-ios-arrow-dropleft-circle" d="M14.75,3.375A11.375,11.375,0,1,0,26.125,14.75,11.373,11.373,0,0,0,14.75,3.375Zm2.373,15.81a1.06,1.06,0,0,1,0,1.493,1.043,1.043,0,0,1-.744.306,1.061,1.061,0,0,1-.749-.312L10.49,15.516a1.054,1.054,0,0,1,.033-1.455L15.74,8.827a1.056,1.056,0,1,1,1.493,1.493l-4.479,4.43Z" transform="translate(26.125 26.125) rotate(180)"/>
</svg>
