<svg xmlns="http://www.w3.org/2000/svg" width="32.507" height="32.508" viewBox="0 0 32.507 32.508">
  <g id="person-circle-outline" transform="translate(0 0)">
    <path id="Trazado_5406" data-name="Trazado 5406" d="M64.461,47.982A16.254,16.254,0,1,0,80.486,64.01,16.275,16.275,0,0,0,64.461,47.982ZM74.34,73.553a.313.313,0,0,1-.48-.025,9.71,9.71,0,0,0-2.528-2.312,13.71,13.71,0,0,0-14.195,0,9.708,9.708,0,0,0-2.528,2.311.313.313,0,0,1-.48.025,13.7,13.7,0,0,1-3.647-9.083,13.753,13.753,0,1,1,27.5-.234,13.7,13.7,0,0,1-3.647,9.318Z" transform="translate(-47.981 -47.981)"/>
    <path id="Trazado_5407" data-name="Trazado 5407" d="M193.324,144a5.164,5.164,0,0,0-5.3,5.685c.227,3.067,2.6,5.567,5.3,5.567s5.066-2.5,5.3-5.567a5.249,5.249,0,0,0-1.381-4.049A5.306,5.306,0,0,0,193.324,144Z" transform="translate(-177.07 -136.497)"/>
  </g>
</svg>
